<svg xmlns="http://www.w3.org/2000/svg" viewBox="0 0 70 122" aria-hidden="true">
  <path fill="#171713" d="m36.5 13.4c-2.7 2.4-10.6 16.3-10.5 17.6 0 0.6 0.7 0.3 2.1-0.8 1.2-1.2 8.6-5.2 9.3-5.2 0.9 0 0.6 2-0.4 2.7-0.4 0.3-2.9 2.7-5.6 4.9-7.1 5.7-11.2 10.1-13.7 14.5-3.3 5.9-5.2 14.6-2.9 22.3 1.8 6.7 4.7 12.5 12.1 25.1l4.7 12.5 1.8 2.4 2-0.1 2.2-2.3c6.5-7.4 11.8-15 15-24 3-7.9 4.7-12.2 3-10.4 0.5-0.5 2.4-10.6 1.3-20-1.1-8.8-3.5-14.3-9.1-24.7-2.7-4.9-5.4-10.4-6.2-12-1.5-3.1-3.3-4.2-5.1-2.5zm10.9 34.6c3.2 7.1 2.2 23-1.8 34.4-2 5.4-8.6 19.2-11.2 20.1-0.3 0.1-3.3-8.7-3.5-14.7-0.5-8.3 0.2-12.7 2.5-20.2 2.2-6.6 8.1-16.4 11.1-19.6 1.4-1.6 2.1-1.6 2.9 0z"/>
  <path fill="#171713" d="m38 15.1c-0.1 0-0.4 0.1-0.5 0.3-1.9 1.7-8.6 12.6-8.5 13.1 0.6-0.1 7.4-3.9 8.4-4 2 0 1.6 3.1 0.1 4.1-0.1 0.2-2.4 2.3-5 4.4-7 5.6-10.9 9.6-13.4 13.9-3.1 5.2-5 13.7-3 21.5 1.8 7.2 3.8 11.7 8.4 19.2l5 8.5-1.5-0.6c-6-10.1-10.9-18.4-13-25.5-2.4-8.1-0.5-17.5 2.6-23.1 2.5-4.3 6.5-8.4 13.5-14 2.5-2 4.9-4.1 5.3-4.5l1.1-1.4v-1.9l-2.4 0.9-4.5 2.1-4.5 3-0.1-0.7 3.1-6.4c2.8-4.9 6.3-9.9 7.5-10.9 0.9-0.6 2.3 0 3.3 1.5l-1.3 0.4-0.6 0.1z"/>
</svg>
